PathFileType	4	(X/Y/Z)	19_coords_data.trc
DataRate	CameraRate	NumFrames	NumMarkers	Units	OrigDataRate	OrigDataStartFrame	OrigNumFrames
30.0	30.0	5	21	m	30.0	1	75
Frame#	Time	THUMB_TIP	THUMB_IP	THUMB_MCP	THUMB_CMC	INDEX_TIP	INDEX_DIP	INDEX_PIP	INDEX_MCP	MIDDLE_TIP	MIDDLE_DIP	MIDDLE_PIP	MIDDLE_MCP	RING_TIP	RING_DIP	RING_PIP	RING_MCP	PINKY_TIP	PINKY_DIP	PINKY_PIP	PINKY_MCP	WRIST
X1	Y1	Z1	X2	Y2	Z2	X3	Y3	Z3	X4	Y4	Z4	X5	Y5	Z5	X6	Y6	Z6	X7	Y7	Z7	X8	Y8	Z8	X9	Y9	Z9	X10	Y10	Z10	X11	Y11	Z11	X12	Y12	Z12	X13	Y13	Z13	X14	Y14	Z14	X15	Y15	Z15	X16	Y16	Z16	X17	Y17	Z17	X18	Y18	Z18	X19	Y19	Z19	X20	Y20	Z20	X21	Y21	Z21
0	-2.749317978547796e-18	0.5462793350513455	-0.024649138972453355	-0.13490280257180692	0.5259874416453749	-0.01917929164692489	-0.1256119558807813	0.497973107665006	-0.012606381819599388	-0.11374545058064364	0.47068308035666206	-0.01725841390874827	-0.07876684273311244	0.5608460908544157	0.042540411719225846	-0.1567452059328562	0.5502151295787812	0.0493417277220769	-0.14375579628555812	0.5320331180114203	0.051212134202443416	-0.12649526709429174	0.502610480709364	0.029029069430429044	-0.1051444791577246	0.5112732241861719	-0.013124329602474893	-0.11601534099023764	0.5276639569230048	-0.008928761008539787	-0.12247607504476238	0.5465435973248709	0.012189611260910005	-0.11562165450140754	0.5166778620342589	0.02729304665975285	-0.08602314075993611	0.5180139864362613	-0.020279614791378298	-0.10530186751690071	0.5346458834875336	-0.015506325630922135	-0.11036108791796564	0.5523420866837021	2.969082585746463e-05	-0.10225821410094307	0.5294451790182451	0.015374717424442963	-0.07267810909693323	0.603821320240953	0.012490598316832857	-0.0732203063853904	0.5872514621507972	0.008430777361686514	-0.07182114353416541	0.5667653306823912	0.0039021506118183114	-0.07103248884447733	0.5314775304147636	-0.0031209773215481462	-0.06851648461085655	0.4622830810018609	-0.023011742144276925	-0.051989820119430985
1	0.03333333333333339	0.5464490990635442	-0.024861294036405468	-0.13483205780906582	0.5264620609636147	-0.019080806618457347	-0.125079915828818	0.49835101175548946	-0.012409366069724759	-0.11350058970753231	0.4708336501045326	-0.01737398559640324	-0.07874375785067615	0.5615128160144618	0.04233841414000539	-0.15739303513957903	0.5505583388069654	0.04872118909010592	-0.14446014632668003	0.532284636794003	0.05027998726341254	-0.12726561824370108	0.5029177573448859	0.02864733501511485	-0.10528265115267242	0.5114355112427542	-0.013133314104773586	-0.11563950148287029	0.5277356783720104	-0.009361814258762036	-0.12257350036301527	0.5467915591207352	0.011579556382091183	-0.11566394505367787	0.5169211407548084	0.026915006514783624	-0.08618971907788316	0.5179981784573078	-0.02054624064011834	-0.10534740627185778	0.5346343866895265	-0.015827453850086104	-0.1104434465861097	0.5525069635647349	-0.0005096637001185123	-0.10231225480622196	0.5295541123331883	0.015064751525672104	-0.07289584705957221	0.6040054366234097	0.011658366098261319	-0.0733715414108538	0.587419979816284	0.007663332687843805	-0.07197070931933923	0.5668814595210139	0.0033826301809529724	-0.07116028404315836	0.5315632766572542	-0.00345142675119281	-0.06855162997444067	0.4622830810018609	-0.023011742144276925	-0.051989820119430985
2	0.06666666666666676	0.546575978464435	-0.025076250262264455	-0.13477038107693154	0.5268482956762952	-0.019042453858224673	-0.12465050791739399	0.49865957539922623	-0.01230300971145637	-0.11330167794537682	0.4709516235847969	-0.017476629482241712	-0.07872722112076995	0.5621848500786897	0.04227283189495079	-0.15782204841142572	0.5509170423967528	0.048237196364727564	-0.14495881139601838	0.5325338354438323	0.0494826274487864	-0.12785569949961315	0.5031891779163425	0.02833784522914007	-0.10537403244669924	0.51159133901308	-0.013205430176116861	-0.11535775689708397	0.5278186390654289	-0.009738526424814764	-0.12261415485958874	0.5470099154930099	0.01106019955879134	-0.11564870752728854	0.517135339677743	0.026609678681072668	-0.08629106218772487	0.518004605261428	-0.020807686764982458	-0.10538284702374048	0.5346500995880032	-0.016110794871715406	-0.11046878107432687	0.5526490007639322	-0.0009684995819180253	-0.1022876791426966	0.5296550788539559	0.014818664865322018	-0.07301711666238692	0.6041763583982418	0.010929343035623651	-0.07336748406595378	0.5875753769158044	0.0069932875199091304	-0.07198369188611604	0.5669936438404674	0.0029246716555334507	-0.0711770646092831	0.5316415214099244	-0.003720091363483613	-0.06853925963601398	0.4622830810018609	-0.023011742144276925	-0.051989820119430985
3	0.10000000000000014	0.5466731043582991	-0.025282965391615453	-0.13471982284614648	0.5271547037139486	-0.019050818354541477	-0.12431826625134279	0.49890552654080733	-0.012269834680557867	-0.11314587843791396	0.4710404617842065	-0.01756453653947987	-0.07871632284485452	0.562839482153676	0.042314683122285035	-0.15805858683194407	0.5512801361492876	0.0478781009778011	-0.14527461633308275	0.5327780965040081	0.0488230320236408	-0.1282807507550834	0.5034240366382537	0.028099463971293037	-0.10542229519532556	0.511730620603212	-0.013324612813151337	-0.11515535390275933	0.5279101858729922	-0.010054840925336928	-0.12260721672238892	0.5471993606386301	0.010633720399595314	-0.11558434571651122	0.5173196884620076	0.026375067765736837	-0.08633433555042669	0.5180315087784244	-0.02106120854272686	-0.10541312495885735	0.5346898257258922	-0.016354435694083347	-0.1104476821220032	0.5527693161143172	-0.001346023053344414	-0.10219786052998339	0.5297468494354723	0.014633829856356528	-0.07305457377289637	0.604332830277471	0.010306172490819554	-0.07323277816108434	0.5877168490664229	0.006422463755975549	-0.07188149178988401	0.5670998939859051	0.0025311069107391004	-0.07110013136668028	0.531711573295591	-0.0039278610822399695	-0.06848633294576764	0.4622830810018609	-0.023011742144276925	-0.051989820119430985
4	0.13333333333333353	0.5467510376209344	-0.025469151826731817	-0.13467946834710381	0.5273890358408067	-0.019091792171829103	-0.12407559306971813	0.4990950313955027	-0.012291527292954019	-0.11302906827563683	0.4711033210119665	-0.017635802228543773	-0.07871008118077841	0.5634545702384995	0.04243354829490886	-0.1581309098346319	0.5516352935038584	0.047630930264934146	-0.14543083431802079	0.533012917023879	0.04830267072750316	-0.12855583233316575	0.5036212304230808	0.02793130875658112	-0.10543068445882472	0.5118488895574451	-0.013474060664818821	-0.11502056130663066	0.5280075671698179	-0.01030655536177738	-0.12256138672395778	0.54736024126095	0.010302217760654986	-0.11547887121670058	0.5174730385224178	0.026209220367645503	-0.08632633613779056	0.5180766105168668	-0.021302745109175958	-0.10544209885464104	0.5347494622509037	-0.016555267948065944	-0.11038957049776987	0.5528686318189048	-0.0016415270485041766	-0.10205554352716523	0.529827739839863	0.014507689572311522	-0.07302037634417656	0.6044729697308142	0.009791328539177968	-0.07299163341635888	0.5878429846317561	0.005952497872017681	-0.07168512099239337	0.5671978702230048	0.002204767621771797	-0.07094634631702876	0.5317725347631783	-0.004075675601315054	-0.06839976203993295	0.4622830810018609	-0.023011742144276925	-0.051989820119430985
